<svg width="25" height="25" viewBox="0 0 25 25" fill="none" xmlns="http://www.w3.org/2000/svg">
<path d="M14.3532 0H14.5274L14.8756 0.203016L15.3234 0.551044L15.5721 0.783063L15.8706 1.10209L16.1443 1.42111L16.4179 1.82715L16.6667 2.26218L16.9403 2.87123L17.1144 3.39327L17.2388 3.91531V4.00232L17.3134 3.91531L17.4627 3.48028L17.5373 3.04524V2.58121L17.4876 2.08817L17.6119 1.94316L17.6617 1.91415L17.8358 2.00116L18.1095 2.17517L18.4826 2.4652L18.806 2.75522L19.1045 3.07425L19.2289 3.19026L19.403 3.42227L19.7015 3.85731L19.9751 4.40835L20.1741 4.93039L20.2985 5.48144L20.3483 5.82947L20.3731 6.38051L20.3483 6.64153L20.8458 6.52552L21.2687 6.46752H22.1144L22.6368 6.55452L23.01 6.67053L23.3831 6.84455L23.7562 7.10557L24.0796 7.42459L24.3284 7.74362L24.5274 8.12065L24.7264 8.58469L24.9005 9.28074L24.9751 9.80278L25 10.1218V10.9919L24.9254 11.6009L24.7512 12.21L24.602 12.558L24.3781 12.935L24.0299 13.3411L23.7811 13.5441L23.4826 13.7471L23.1343 13.9211L22.6617 14.0661L22.4378 14.1241H22.2139V14.1821L22.3134 14.2401L22.6368 14.5302L23.1841 15.1682L23.4826 15.6323L23.7065 16.0673L23.8806 16.5313L24.005 17.0244L24.0547 17.4594V17.8364L23.9801 18.3875L23.8308 18.9095L23.5821 19.4606L23.408 19.7506L23.2338 20.0116L23.01 20.3016L22.8358 20.5336L22.6368 20.7367L22.3632 21.0267L21.9403 21.4037L21.5174 21.7517L21.0448 22.0998L20.398 22.5348L19.5771 23.0278L18.7562 23.4629L17.9104 23.8689L17.0149 24.2459L16.1692 24.536L15.4229 24.739L14.7264 24.884L13.6816 25H12.9104L12.1144 24.913L11.5423 24.797L10.9701 24.623L10.398 24.391L9.75124 24.0429L9.32836 23.7529L9.02985 23.5209L8.73134 23.2599L8.48259 23.0278L8.1592 22.6798L7.81095 22.2738L7.58707 21.9548L7.28856 21.5197L6.99005 20.9977L6.69154 20.3886L6.41791 19.7216L6.34328 19.4606L5.59702 19.7506L5.02488 19.8666H4.20398L4.1791 20.0116V20.2436L4.27861 20.6206L4.40299 20.8527L4.55224 20.9397L4.72637 20.9107L4.92537 20.7657L5.14925 20.5046L5.17413 20.4466H5.74627L5.97015 20.4756L5.89552 20.7657L5.72139 21.2297L5.52239 21.5487L5.29851 21.7517L5.12438 21.8387L4.82587 21.8677L4.47761 21.7807L4.15423 21.5777L3.95522 21.3747L3.75622 21.0557L3.55721 20.5916L3.50746 20.3306V19.9246L3.55721 19.7216L3.08458 19.5186L2.61194 19.2575L2.21393 18.9675L1.86567 18.6485L1.56716 18.3295L1.34328 18.0684L1.06965 17.6624L0.895522 17.3724L0.671642 16.9374L0.39801 16.2703L0.199005 15.5742L0.0746269 14.9072L0.0248756 14.4722L0 14.0951V13.5441L0.0497512 12.79L0.149254 12.123L0.323383 11.3689L0.522388 10.7019L0.845771 9.91879L1.09453 9.48376L1.31841 9.16473L1.56716 8.87471L1.8408 8.64269L2.23881 8.41067L2.56219 8.29466L2.93532 8.23666H3.1592L3.58209 8.29466L3.95522 8.41067L4.35323 8.58469L4.77612 8.84571L4.87562 8.81671L5.04975 8.58469L5.29851 8.23666L5.49751 7.83063L5.62189 7.4826L5.69652 7.10557V6.61253L5.59702 6.17749L5.49751 5.88747L5.29851 5.51044L5.27363 5.39443L5.34826 5.24942L5.67164 5.19142H6.19403L6.66667 5.24942L7.0398 5.36543L7.28856 5.51044L7.46269 5.62645L7.43781 5.53944L7.38806 5.07541L7.26368 4.72738L7.11443 4.49536L6.91542 4.29234L6.74129 4.14733L6.71642 3.94432L6.81592 3.82831L7.06468 3.7703H7.53731L7.9602 3.85731L8.25871 4.03132L8.45771 4.23434L8.48259 4.20534L8.33333 3.7703L8.18408 3.53828L7.93532 3.30626L7.51244 3.07425L6.91542 2.81322L6.51741 2.58121L6.14428 2.29118L5.8209 1.97216L5.62189 1.74014L5.32338 1.2761L5.12438 0.87007L5.04975 0.667053V0.493039L5.14925 0.319026L5.27363 0.203016H5.47264L5.89552 0.348028L6.34328 0.435035H8.63184L9.40299 0.493039L10.2985 0.609049L11.0448 0.75406L11.6418 0.928074L12.3632 1.2181L12.9851 1.56613L13.3831 1.85615L13.6816 2.11717L13.9303 2.37819L14.0796 2.5232L14.3035 2.84223L14.4776 3.13225L14.602 3.36427L14.6517 3.39327L14.7015 2.98724V2.34919L14.602 1.65313L14.4279 0.957077L14.2289 0.290023L14.2537 0.116009L14.3532 0Z" fill="#09090B"/>
<path d="M14.3532 0H14.5274L14.8756 0.203016L15.3234 0.551044L15.5721 0.783063L15.8706 1.10209L16.1443 1.42111L16.4179 1.82715L16.6667 2.26218L16.9403 2.87123L17.1144 3.39327L17.2388 3.91531V4.00232L17.3134 3.91531L17.4627 3.48028L17.5373 3.04524V2.58121L17.4876 2.08817L17.6119 1.94316L17.6617 1.91415L17.8358 2.00116L18.1095 2.17517L18.4826 2.4652L18.806 2.75522L19.1045 3.07425L19.2289 3.19026L19.403 3.42227L19.7015 3.85731L19.9751 4.40835L20.1741 4.93039L20.2985 5.48144L20.3483 5.82947L20.3731 6.38051L20.3483 6.64153L20.8458 6.52552L21.2687 6.46752H22.1144L22.6368 6.55452L23.01 6.67053L23.3831 6.84455L23.7562 7.10557L24.0796 7.42459L24.3284 7.74362L24.5274 8.12065L24.7264 8.58469L24.9005 9.28074L24.9751 9.80278L25 10.1218V10.9919L24.9254 11.6009L24.7512 12.21L24.602 12.558L24.3781 12.935L24.0299 13.3411L23.7811 13.5441L23.4826 13.7471L23.1343 13.9211L22.6617 14.0661L22.4378 14.1241H22.2139V14.1821L22.3134 14.2401L22.6368 14.5302L23.1841 15.1682L23.4826 15.6323L23.7065 16.0673L23.8806 16.5313L24.005 17.0244L24.0547 17.4594V17.8364L23.9801 18.3875L23.8308 18.9095L23.5821 19.4606L23.408 19.7506L23.2338 20.0116L23.01 20.3016L22.8358 20.5336L22.6368 20.7367L22.3632 21.0267L21.9403 21.4037L21.5174 21.7517L21.0448 22.0998L20.398 22.5348L19.5771 23.0278L18.7562 23.4629L17.9104 23.8689L17.0149 24.2459L16.1692 24.536L15.4229 24.739L14.7264 24.884L13.6816 25H12.9104L12.1144 24.913L11.5423 24.797L10.9701 24.623L10.398 24.391L9.75124 24.0429L9.32836 23.7529L9.02985 23.5209L8.73134 23.2599L8.48259 23.0278L8.1592 22.6798L7.81095 22.2738L7.58707 21.9548L7.28856 21.5197L6.99005 20.9977L6.69154 20.3886L6.41791 19.7216L6.34328 19.4606L5.59702 19.7506L5.02488 19.8666H4.20398L4.1791 20.0116V20.2436L4.27861 20.6206L4.40299 20.8527L4.55224 20.9397L4.72637 20.9107L4.92537 20.7657L5.14925 20.5046L5.17413 20.4466H5.74627L5.97015 20.4756L5.89552 20.7657L5.72139 21.2297L5.52239 21.5487L5.29851 21.7517L5.12438 21.8387L4.82587 21.8677L4.47761 21.7807L4.15423 21.5777L3.95522 21.3747L3.75622 21.0557L3.55721 20.5916L3.50746 20.3306V19.9246L3.55721 19.7216L3.08458 19.5186L2.61194 19.2575L2.21393 18.9675L1.86567 18.6485L1.56716 18.3295L1.34328 18.0684L1.06965 17.6624L0.895522 17.3724L0.671642 16.9374L0.39801 16.2703L0.199005 15.5742L0.0746269 14.9072L0.0248756 14.4722L0 14.0951V13.5441L0.0497512 12.79L0.149254 12.123L0.323383 11.3689L0.522388 10.7019L0.845771 9.91879L1.09453 9.48376L1.31841 9.16473L1.56716 8.87471L1.8408 8.64269L2.23881 8.41067L2.56219 8.29466L2.93532 8.23666H3.1592L3.58209 8.29466L3.95522 8.41067L4.35323 8.58469L4.77612 8.84571L4.87562 8.81671L5.04975 8.58469L5.29851 8.23666L5.49751 7.83063L5.62189 7.4826L5.69652 7.10557V6.61253L5.59702 6.17749L5.49751 5.88747L5.29851 5.51044L5.27363 5.39443L5.34826 5.24942L5.67164 5.19142H6.19403L6.66667 5.24942L7.0398 5.36543L7.28856 5.51044L7.46269 5.62645L7.43781 5.53944L7.38806 5.07541L7.26368 4.72738L7.11443 4.49536L6.91542 4.29234L6.74129 4.14733L6.71642 3.94432L6.81592 3.82831L7.06468 3.7703H7.53731L7.9602 3.85731L8.25871 4.03132L8.45771 4.23434L8.48259 4.20534L8.33333 3.7703L8.18408 3.53828L7.93532 3.30626L7.51244 3.07425L6.91542 2.81322L6.51741 2.58121L6.14428 2.29118L5.8209 1.97216L5.62189 1.74014L5.32338 1.2761L5.12438 0.87007L5.04975 0.667053V0.493039L5.14925 0.319026L5.27363 0.203016H5.47264L5.89552 0.348028L6.34328 0.435035H8.63184L9.40299 0.493039L10.2985 0.609049L11.0448 0.75406L11.6418 0.928074L12.3632 1.2181L12.9851 1.56613L13.3831 1.85615L13.6816 2.11717L13.9303 2.37819L14.0796 2.5232L14.3035 2.84223L14.4776 3.13225L14.602 3.36427L14.6517 3.39327L14.7015 2.98724V2.34919L14.602 1.65313L14.4279 0.957077L14.2289 0.290023L14.2537 0.116009L14.3532 0Z" fill="#09090B"/>
<path d="M8.6816 9.42575H9.62688L10.2239 9.51276L10.8955 9.68677L11.6169 9.94779L12.2388 10.2378L12.811 10.5278L13.1841 10.6729L13.5324 10.7599L13.7314 10.7889H14.3532L15.0249 10.6438L15.6965 10.3828L16.6418 9.94779L17.2388 9.71577L17.7861 9.57076L18.1592 9.51276H19.1294L19.4776 9.57076L19.9005 9.71577L20.2985 9.94779L20.5473 10.1798L20.796 10.4698L20.995 10.8469L21.1194 11.1659L21.2438 11.7169L21.2935 12.181V12.703L21.2438 13.138L21.1443 13.5151L20.9702 13.9211L20.6965 14.2981L20.4975 14.5012L20.0995 14.7912L19.6269 15.0232L19.1045 15.1972L18.5324 15.3132L18.2587 15.3422L17.5373 15.3712L18.2836 15.6612L18.806 15.9513L19.2537 16.2703L19.5025 16.5023L19.8259 16.8213L20 17.0244L20.2488 17.4014L20.4478 17.7784L20.6468 18.2715L20.7463 18.6485L20.796 18.9385V19.4896L20.7214 19.8956L20.5722 20.3596L20.3731 20.7657L20.1244 21.1427L19.9005 21.4327L19.5771 21.8097L19.3284 22.0418L18.9552 22.3608L18.4826 22.7088L17.811 23.1148L17.2388 23.4049L16.3433 23.7529L15.6468 23.9559L14.9005 24.1009L14.1542 24.1879H13.1343L12.4627 24.1009L11.9901 23.9849L11.5921 23.8109L11.2189 23.5789L10.9702 23.3469L10.7214 23.0568L10.5473 22.7668L10.3483 22.3028L10.2239 21.8387L10.1493 21.3167V20.3306L10.2239 19.6926L10.3731 18.8805L10.5473 18.2135L10.6965 17.7784L10.0995 17.8654H9.00499L8.3831 17.7494L7.98509 17.6044L7.61195 17.4304L7.26369 17.1984L6.99006 16.9374L6.76618 16.7053L6.51743 16.3283L6.29354 15.8933L6.11942 15.4002L5.99504 14.8492L5.92041 14.2401V13.1961L5.99504 12.5L6.11942 11.8039L6.26867 11.2819L6.46767 10.8469L6.69155 10.4988L6.96519 10.1798L7.28857 9.91879L7.68658 9.68677L8.18409 9.51276L8.6816 9.42575Z" fill="white"/>
<path d="M3.18406 11.0209H3.70645L4.12934 11.1079L4.42784 11.2239L4.72635 11.3979L4.7761 11.4559L4.82585 11.8329L4.97511 13.2831V13.4571L4.6766 13.2831L4.50247 13.2251H4.15421L3.95521 13.3121L3.7562 13.5151L3.6567 13.7761L3.63182 13.8921V14.2111L3.70645 14.4142L3.80595 14.5302L3.95521 14.5882H4.15421L4.47759 14.5012L4.92536 14.2691L5.02486 14.1821H5.07461L5.14924 14.6462L5.32337 15.7773L5.49749 16.6183L5.52237 16.7343V17.0244L5.39799 17.2564L5.29849 17.3724L5.12436 17.4304H4.32834L3.78108 17.3434L3.28356 17.1984L2.86068 16.9954L2.48754 16.7343L2.16416 16.3863L1.99003 16.1543L1.76615 15.6903L1.64177 15.3132L1.54227 14.8202L1.5174 14.5592V13.5441L1.59202 12.935L1.7164 12.442L1.9154 11.978L2.01491 11.8039L2.23879 11.5139L2.46267 11.3109L2.76118 11.1369L3.00993 11.0499L3.18406 11.0209Z" fill="white"/>
<path d="M21.4925 8.14964H22.2388L22.4875 8.20765L22.8358 8.35266L23.1094 8.55568L23.4079 8.9037L23.5572 9.19373L23.7065 9.59976L23.7811 10.0058L23.806 10.2668V10.8179L23.7313 11.2529L23.607 11.6009L23.3831 11.9489L23.1592 12.181L22.8109 12.413L22.3632 12.587L22.1393 12.645H22.0149L22.0647 12.065V11.6009L22.0149 11.1079V10.9629L22.6866 10.7308L22.8856 10.6148L22.9353 10.5278L22.9104 10.3828L22.8109 10.2378L22.5871 10.1218H22.4129L22.2139 10.2378L22.0647 10.3828L21.99 10.5278H21.9154L21.7164 9.74477L21.4428 8.93271L21.2935 8.55568V8.38166L21.393 8.20765L21.4925 8.14964Z" fill="white"/>
<path d="M10.0995 12.152L10.199 12.181L10.2737 12.442L10.398 12.587L10.5722 12.674L10.7463 12.645L10.9204 12.529L11.0199 12.355L11.0697 12.21L11.1692 12.239L11.4428 12.471L11.6418 12.761L11.7911 13.1381L11.8408 13.3701V13.9501L11.7662 14.2691L11.6169 14.6172L11.3931 14.9072L11.194 15.0812L10.8955 15.2262L10.6717 15.2842H10.4727L10.199 15.2262L9.85076 15.0232L9.55226 14.7042L9.37813 14.3562L9.27863 13.9791V13.3701L9.37813 12.993L9.55226 12.645L9.80101 12.355L10.0995 12.152Z" fill="#09090B"/>
<path d="M8.88055 1.39211H9.25369L10.199 1.47911L10.8955 1.59512L11.5671 1.76914L12.1641 2.00115L12.6865 2.29118L13.0597 2.5812L13.3582 2.90023L13.6069 3.21925L13.8059 3.59628L13.9552 4.00231L14.0547 4.52436V5.0174L13.9303 4.90139L13.7313 4.58236L13.383 4.14733L13.0099 3.71229L12.7363 3.45127L12.3134 3.07424L11.8408 2.72621L11.393 2.43619L10.8209 2.11716L10.1492 1.82714L9.5522 1.62412L8.95518 1.47911L8.88055 1.39211Z" fill="white"/>
<path d="M17.2886 17.5174H17.5125L17.7861 17.6334L17.9851 17.8364L18.1095 18.0394L18.1592 18.2135V18.6485L18.0597 18.9385L17.9105 19.1415L17.7115 19.2865L17.5373 19.3445H17.2637L16.9901 19.2285L16.7413 18.9675L16.6418 18.7065L16.6169 18.5905V18.2715L16.7164 17.9524L16.9155 17.6914L17.1145 17.5754L17.2886 17.5174Z" fill="#09090B"/>
<path d="M17.1393 12.645H17.1891L17.2637 12.819V12.877L17.3632 12.935L17.5373 12.906L17.612 12.819L17.6617 12.703L17.7861 12.761L17.9602 12.993L18.0597 13.2831L18.0846 13.6021L18.01 13.9501L17.9105 14.1531L17.7363 14.3562L17.5871 14.4432L17.3134 14.4722L17.0896 14.3852L16.8657 14.1531L16.7413 13.8631L16.7164 13.7181V13.3411L16.7911 13.0511L16.9403 12.819L17.1393 12.645Z" fill="#09090B"/>
<path d="M18.8059 3.7413L18.8806 3.7703L19.1542 4.23434L19.3283 4.58237L19.5273 5.19142L19.602 5.62645V6.29351L19.5025 6.81555L19.3283 7.27959L19.1791 7.56961L19.1044 7.62761L19.1791 7.36659L19.2537 7.04757L19.2786 6.84455V6.03249L19.204 5.45244L19.0547 4.72738L18.7811 3.7703L18.8059 3.7413Z" fill="white"/>
<path d="M13.3582 15.8643L13.7065 15.8933L13.9303 15.9803L14.0547 16.1253V16.2703L13.8806 16.4443L13.5572 16.5893L13.4577 16.6183H13.0597L12.9353 16.5023L12.8856 16.3573V16.1833L12.9851 16.0093L13.1841 15.8933L13.3582 15.8643Z" fill="#09090B"/>
<path d="M15.6717 15.6322H15.9204L16.0697 15.7193L16.1443 15.8353L16.1692 16.0383L16.0448 16.1833L15.7214 16.2993H15.3732L15.1493 16.2123L15.0746 16.1253L15.1244 15.9803L15.3483 15.7773L15.5722 15.6613L15.6717 15.6322Z" fill="#09090B"/>
</svg>
